<svg width="395.99999999999994" height="131.26946796563232" viewBox="0 0 406 134.58435352032" class="looka-1j8o68f"><defs id="SvgjsDefs1741"></defs><g id="SvgjsG1742" featurekey="symbolFeature-0" transform="matrix(1.9230769230769231,0,0,1.9230769230769231,-46.15384615384615,-28.83770282451923)" fill="#000000"><g xmlns="http://www.w3.org/2000/svg" transform="translate(0,-952.36218)"><path style="font-size:medium;font-style:normal;font-variant:normal;font-weight:normal;font-stretch:normal;text-indent:0;text-align:start;text-decoration:none;line-height:normal;letter-spacing:normal;word-spacing:normal;text-transform:none;direction:ltr;block-progression:tb;writing-mode:lr-tb;text-anchor:start;baseline-shift:baseline;opacity:1;color:;fill:#000000;fill-opacity:1;stroke:none;stroke-width:2;marker:none;visibility:visible;display:inline;overflow:visible;enable-background:accumulate;font-family:Sans;-inkscape-font-specification:Sans" d="M 44.8125 15 A 1.0001 1.0001 0 0 0 44 16 L 44 29.9375 C 42.296141 30.466952 40.686775 31.186986 39.1875 32.09375 L 35.875 28.78125 A 1.0001 1.0001 0 0 0 34.9375 28.5 A 1.0001 1.0001 0 0 0 34.4375 28.78125 L 28.78125 34.4375 A 1.0001 1.0001 0 0 0 28.78125 35.84375 L 32.0625 39.125 C 30.968944 40.92777 30.168872 42.89714 29.65625 45 L 25 45 A 1.0001 1.0001 0 0 0 24 46 L 24 54 A 1.0001 1.0001 0 0 0 25 55 L 29.6875 55 C 30.200781 57.0887 30.975548 59.05185 32.0625 60.84375 L 28.78125 64.125 A 1.0001 1.0001 0 0 0 28.78125 65.53125 L 34.4375 71.1875 A 1.0001 1.0001 0 0 0 35.875 71.1875 L 39.1875 67.875 C 40.68455 68.7808 42.257371 69.6134 43.96875 70.125 A 1.0087508 1.0087508 0 0 0 44 70.125 L 44 77 A 1.0001 1.0001 0 0 0 44.1875 77.5625 L 49.1875 84.5625 A 1.0001 1.0001 0 0 0 50.8125 84.5625 L 55.8125 77.5625 A 1.0001 1.0001 0 0 0 56 77 L 56 61.53125 C 60.168086 59.36505 63 55.0125 63 50 C 63 42.83212 57.167856 37 50 37 C 42.832144 37 37 42.83212 37 50 C 37 51.9348 37.426831 53.75345 38.1875 55.40625 A 1.0001 1.0001 0 1 0 40 54.59375 C 39.356889 53.19635 39 51.643 39 50 C 39 46.129638 40.988583 42.741161 44 40.78125 L 44 68 C 42.407109 67.470774 40.90851 66.756156 39.53125 65.84375 A 1.0001 1.0001 0 0 0 38.25 65.96875 L 35.15625 69.0625 L 30.9375 64.8125 L 34.03125 61.71875 A 1.0001 1.0001 0 0 0 34.15625 60.46875 C 32.836003 58.47585 31.86791 56.20875 31.375 53.78125 A 1.0001 1.0001 0 0 0 30.40625 53 L 26 53 L 26 47 L 30.40625 47 A 1.0001 1.0001 0 0 0 31.375 46.1875 C 31.86791 43.76002 32.836 41.4929 34.15625 39.5 A 1.0001 1.0001 0 0 0 34.03125 38.25 L 30.9375 35.125 L 35.15625 30.90625 L 38.25 34 A 1.0001 1.0001 0 0 0 39.53125 34.125 C 42.535229 32.13493 46.121992 31 50 31 C 53.878008 31 57.464771 32.13493 60.46875 34.125 A 1.0001 1.0001 0 0 0 61.75 34 L 64.84375 30.90625 L 69.0625 35.125 L 65.96875 38.25 A 1.0001 1.0001 0 0 0 65.84375 39.5 C 67.164 41.4929 68.13209 43.76002 68.625 46.1875 A 1.0001 1.0001 0 0 0 69.59375 47 L 74 47 L 74 53 L 69.59375 53 A 1.0001 1.0001 0 0 0 68.625 53.78125 C 68.13209 56.20875 67.163997 58.47585 65.84375 60.46875 A 1.0001 1.0001 0 0 0 65.96875 61.71875 L 69.0625 64.8125 L 64.84375 69.0625 L 61.75 65.96875 A 1.0054607 1.0054607 0 0 0 60.3125 67.375 L 64.125 71.1875 A 1.0001 1.0001 0 0 0 65.5625 71.1875 L 71.21875 65.53125 A 1.0001 1.0001 0 0 0 71.21875 64.125 L 67.9375 60.84375 C 69.024452 59.05185 69.799219 57.0887 70.3125 55 L 75 55 A 1.0001 1.0001 0 0 0 76 54 L 76 46 A 1.0001 1.0001 0 0 0 75 45 L 70.34375 45 C 69.831128 42.89714 69.031056 40.92777 67.9375 39.125 L 71.21875 35.84375 A 1.0001 1.0001 0 0 0 71.21875 34.4375 L 65.5625 28.78125 A 1.0001 1.0001 0 0 0 64.125 28.78125 L 60.8125 32.09375 C 59.313225 31.186986 57.703859 30.466952 56 29.9375 L 56 16 A 1.0001 1.0001 0 0 0 55 15 L 45 15 A 1.0001 1.0001 0 0 0 44.8125 15 z M 46 17 L 54 17 L 54 22 L 46 22 L 46 17 z M 46 24 L 54 24 L 54 29.4375 C 52.708724 29.174931 51.369697 29 50 29 C 48.630303 29 47.291276 29.174931 46 29.4375 L 46 24 z M 50 39 C 51.416212 39 52.757976 39.296441 54 39.78125 L 54 75 L 46 75 L 46 39.78125 C 47.242024 39.296441 48.583788 39 50 39 z M 56 40.78125 C 59.011417 42.741161 61 46.129638 61 50 C 61 53.864884 59.004591 57.227857 56 59.1875 L 56 40.78125 z M 46.25 77 L 53.75 77 L 50 82.28125 L 46.25 77 z " transform="translate(0,952.36218)"></path></g></g><g id="SvgjsG1743" featurekey="textGroupContainer" transform="matrix(1,0,0,1,405,6)" fill="#000000"><rect xmlns="http://www.w3.org/2000/svg" y="0" height="1" width="1" opacity="0"></rect><rect xmlns="http://www.w3.org/2000/svg" y="0" x="-285" width="3" height="124"></rect></g><g id="SvgjsG1744" featurekey="vMvB0T-0" transform="matrix(2.4380727439717074,0,0,2.4380727439717074,136.24458755458656,22.274040719415982)" fill="#000000"><path d="M4.48 16.28 q0.54 1.56 2.18 1.56 q0.82 0 1.33 -0.41 t0.8 -1.04 t0.39 -1.41 t0.1 -1.54 q0 -0.7 -0.05 -1.56 t-0.29 -1.61 t-0.76 -1.26 t-1.52 -0.51 q-0.96 0 -1.47 0.49 t-0.76 1.21 t-0.31 1.53 t-0.06 1.43 q0 0.92 0.09 1.64 t0.33 1.48 z M2.86 19.04 q-2.14 -1.78 -2.14 -5.86 q0 -1.76 0.41 -3.09 t1.18 -2.23 t1.87 -1.36 t2.48 -0.46 t2.49 0.46 t1.88 1.37 t1.18 2.24 t0.41 3.07 t-0.41 3.07 t-1.18 2.23 t-1.88 1.36 t-2.49 0.46 q-2.28 0 -3.8 -1.26 z M16 18.68 l-2.36 -12.16 q0.96 -0.36 1.7 -0.36 q0.84 0 1.22 0.37 t0.54 1.39 l0.84 5.16 q0.38 2.32 0.48 3.24 t0.13 0.96 t0.13 0.04 l1.66 -10.72 q0.74 -0.14 2.06 -0.14 t2.04 0.14 l1.52 10.46 q0.02 0.18 0.07 0.22 t0.15 0.04 q0.18 -1.88 0.6 -4.26 l1.12 -6.72 q0.58 -0.12 1.34 -0.12 q0.92 0 1.62 0.22 l0.14 0.18 l-2.64 13.36 q-1.3 0.14 -2.44 0.14 t-1.62 -0.28 t-0.62 -1.16 l-0.68 -4.34 q-0.36 -2.36 -0.58 -4.64 l-0.14 0 q-0.22 1.94 -0.66 4.64 l-0.9 5.64 q-1.36 0.14 -2.47 0.14 t-1.59 -0.28 t-0.66 -1.16 z M43.68 6.199999999999999 l0.14 0.14 l0 13.6 q-0.8 0.18 -1.89 0.18 t-1.93 -0.12 l-3.14 -7.16 q-0.56 -1.22 -1.14 -2.82 l-0.06 0.02 q0.24 2.92 0.24 5.98 l0 3.98 q-0.62 0.12 -1.5 0.12 t-1.48 -0.12 l0 -13.6 q0.76 -0.18 1.83 -0.18 t1.91 0.12 l3.1 7.14 q0.84 1.98 1.24 3.04 l0.08 -0.04 q-0.24 -2.78 -0.24 -5.9 l0 -2.44 q0 -1.04 0.42 -1.49 t1.36 -0.45 l1.06 0 z M56.42 8.98 l0.02 1.48 l0 9.54 q-0.68 0.12 -1.62 0.12 t-1.58 -0.12 l0 -11.02 l-1.28 0.02 l-2.06 0 q-0.12 -0.58 -0.12 -1.33 t0.12 -1.33 l9.9 0 q0.16 0.52 0.16 1.26 t-0.4 1.07 t-1.28 0.33 l-0.58 0 l-1.26 -0.02 l-0.02 0 z M64.04 16.28 q0.54 1.56 2.18 1.56 q0.82 0 1.33 -0.41 t0.8 -1.04 t0.39 -1.41 t0.1 -1.54 q0 -0.7 -0.05 -1.56 t-0.29 -1.61 t-0.76 -1.26 t-1.52 -0.51 q-0.96 0 -1.47 0.49 t-0.76 1.21 t-0.31 1.53 t-0.06 1.43 q0 0.92 0.09 1.64 t0.33 1.48 z M62.42 19.04 q-2.14 -1.78 -2.14 -5.86 q0 -1.76 0.41 -3.09 t1.18 -2.23 t1.87 -1.36 t2.48 -0.46 t2.49 0.46 t1.88 1.37 t1.18 2.24 t0.41 3.07 t-0.41 3.07 t-1.18 2.23 t-1.88 1.36 t-2.49 0.46 q-2.28 0 -3.8 -1.26 z M87.66000000000001 19.12 q-0.64 0.52 -1.68 0.76 t-2.3 0.24 q-0.62 0 -1.79 -0.02 t-2.93 -0.06 l-0.14 -0.14 l0 -13.46 l0.14 -0.14 q1.16 -0.04 2.41 -0.06 t2.63 -0.02 q1.7 0 2.84 0.54 t1.82 1.48 t0.96 2.21 t0.28 2.73 q0 2 -0.46 3.46 t-1.78 2.48 z M83.98000000000002 17.62 q2.64 0 2.64 -4.44 q0 -4.46 -2.64 -4.46 l-1.13 0 t-0.85 -0.02 l0 8.94 q0.36 -0.02 0.85 -0.02 l1.13 0 z M95.12000000000002 16.28 q0.54 1.56 2.18 1.56 q0.82 0 1.33 -0.41 t0.8 -1.04 t0.39 -1.41 t0.1 -1.54 q0 -0.7 -0.05 -1.56 t-0.29 -1.61 t-0.76 -1.26 t-1.52 -0.51 q-0.96 0 -1.47 0.49 t-0.76 1.21 t-0.31 1.53 t-0.06 1.43 q0 0.92 0.09 1.64 t0.33 1.48 z M93.50000000000001 19.04 q-2.14 -1.78 -2.14 -5.86 q0 -1.76 0.41 -3.09 t1.18 -2.23 t1.87 -1.36 t2.48 -0.46 t2.49 0.46 t1.88 1.37 t1.18 2.24 t0.41 3.07 t-0.41 3.07 t-1.18 2.23 t-1.88 1.36 t-2.49 0.46 q-2.28 0 -3.8 -1.26 z"></path></g><g id="SvgjsG1745" featurekey="sloganFeature-0" transform="matrix(0.9691988470355147,0,0,0.9691988470355147,136.33297864859495,76.90201338061115)" fill="#000000"><path d="M12.32 18.28 l0 1.72 l-10.6 0 l0 -14.36 l10.46 0 l0 1.72 l-8.52 0 l0 4.4 l7.86 0 l0 1.72 l-7.86 0 l0 4.8 l8.66 0 z M26.212 15.82 l-5.76 0 l-1.5 4.18 l-2 0 l5.4 -14.36 l2.2 0 l5.2 14.36 l-2.12 0 z M21.052 14.1 l4.46 0 l-2.12 -6.32 l-0.04 0 z M45.344 9.84 l-1.82 0 c-0.1 -2.22 -1.94 -2.92 -3.56 -2.92 c-1.22 0 -3.28 0.34 -3.28 2.52 c0 1.22 0.86 1.62 1.7 1.82 l4.1 0.94 c1.86 0.44 3.26 1.56 3.26 3.84 c0 3.4 -3.16 4.34 -5.62 4.34 c-2.66 0 -3.7 -0.8 -4.34 -1.38 c-1.22 -1.1 -1.46 -2.3 -1.46 -3.64 l1.82 0 c0 2.6 2.12 3.36 3.96 3.36 c1.4 0 3.76 -0.36 3.76 -2.42 c0 -1.5 -0.7 -1.98 -3.06 -2.54 l-2.94 -0.68 c-0.94 -0.22 -3.06 -0.88 -3.06 -3.38 c0 -2.24 1.46 -4.44 4.94 -4.44 c5.02 0 5.52 3 5.6 4.58 z M57.656000000000006 14.219999999999999 l0 5.78 l-1.94 0 l0 -5.78 l-5.42 -8.58 l2.26 0 l4.12 6.9 l4.12 -6.9 l2.28 0 z M65.628 20 l0 -2.12 l2.08 0 l0 1.96 c0 2.72 -1.68 3.04 -2.08 3.1 l0 -0.92 c0.84 -0.08 1.06 -1.08 1.06 -2.02 l-1.06 0 z M76.44 13.48 l0 6.52 l-1.94 0 l0 -14.36 l9.94 0 l0 1.72 l-8 0 l0 4.4 l7.04 0 l0 1.72 l-7.04 0 z M97.87200000000001 15.82 l-5.76 0 l-1.5 4.18 l-2 0 l5.4 -14.36 l2.2 0 l5.2 14.36 l-2.12 0 z M92.712 14.1 l4.46 0 l-2.12 -6.32 l-0.04 0 z M117.004 9.84 l-1.82 0 c-0.1 -2.22 -1.94 -2.92 -3.56 -2.92 c-1.22 0 -3.28 0.34 -3.28 2.52 c0 1.22 0.86 1.62 1.7 1.82 l4.1 0.94 c1.86 0.44 3.26 1.56 3.26 3.84 c0 3.4 -3.16 4.34 -5.62 4.34 c-2.66 0 -3.7 -0.8 -4.34 -1.38 c-1.22 -1.1 -1.46 -2.3 -1.46 -3.64 l1.82 0 c0 2.6 2.12 3.36 3.96 3.36 c1.4 0 3.76 -0.36 3.76 -2.42 c0 -1.5 -0.7 -1.98 -3.06 -2.54 l-2.94 -0.68 c-0.94 -0.22 -3.06 -0.88 -3.06 -3.38 c0 -2.24 1.46 -4.44 4.94 -4.44 c5.02 0 5.52 3 5.6 4.58 z M121.956 7.359999999999999 l0 -1.72 l11.66 0 l0 1.72 l-4.86 0 l0 12.64 l-1.94 0 l0 -12.64 l-4.86 0 z M138.96800000000002 20 l0 -2.12 l2.08 0 l0 1.96 c0 2.72 -1.68 3.04 -2.08 3.1 l0 -0.92 c0.84 -0.08 1.06 -1.08 1.06 -2.02 l-1.06 0 z M149.54 7.300000000000001 l0 4.42 l3.5 0 c1.86 0 3 -0.56 3 -2.32 c0 -1.34 -0.82 -2.1 -2.98 -2.1 l-3.52 0 z M147.6 20 l0 -14.36 l6.32 0 c2.68 0 4.06 1.66 4.06 3.62 c0 0.94 -0.34 2.26 -1.92 3 c0.94 0.38 2.6 1.04 2.6 3.5 c0 2.3 -1.7 4.24 -4.88 4.24 l-6.18 0 z M149.54 13.3 l0 5.04 l4.14 0 c2.02 0 3.04 -1.02 3.04 -2.62 c0 -2.02 -1.78 -2.42 -3.36 -2.42 l-3.82 0 z M175.112 18.28 l0 1.72 l-10.6 0 l0 -14.36 l10.46 0 l0 1.72 l-8.52 0 l0 4.4 l7.86 0 l0 1.72 l-7.86 0 l0 4.8 l8.66 0 z M191.464 9.84 l-1.82 0 c-0.1 -2.22 -1.94 -2.92 -3.56 -2.92 c-1.22 0 -3.28 0.34 -3.28 2.52 c0 1.22 0.86 1.62 1.7 1.82 l4.1 0.94 c1.86 0.44 3.26 1.56 3.26 3.84 c0 3.4 -3.16 4.34 -5.62 4.34 c-2.66 0 -3.7 -0.8 -4.34 -1.38 c-1.22 -1.1 -1.46 -2.3 -1.46 -3.64 l1.82 0 c0 2.6 2.12 3.36 3.96 3.36 c1.4 0 3.76 -0.36 3.76 -2.42 c0 -1.5 -0.7 -1.98 -3.06 -2.54 l-2.94 -0.68 c-0.94 -0.22 -3.06 -0.88 -3.06 -3.38 c0 -2.24 1.46 -4.44 4.94 -4.44 c5.02 0 5.52 3 5.6 4.58 z M196.416 7.359999999999999 l0 -1.72 l11.66 0 l0 1.72 l-4.86 0 l0 12.64 l-1.94 0 l0 -12.64 l-4.86 0 z"></path></g></svg>